HIERARCHY
ROOT hip
{
	OFFSET 0.000000 0.000000 0.000000 
	CHANNELS 6 Xposition Yposition Zposition Xrotation Zrotation Yrotation
	JOINT abdomen
	{
		OFFSET 0.000000 3.402643 0.000000 
		CHANNELS 3 Xrotation Zrotation Yrotation
		JOINT chest
		{
			OFFSET 0.000000 8.438565 -0.680529 
			CHANNELS 3 Xrotation Zrotation Yrotation
			JOINT neck
			{
				OFFSET 0.000000 10.207942 -0.272212 
				CHANNELS 3 Xrotation Zrotation Yrotation
				JOINT head
				{
					OFFSET 0.000000 3.130431 0.000000 
					CHANNELS 3 Xrotation Zrotation Yrotation
					End Site
					{
						OFFSET 0.000000 3.130435 0.000000 
					}
				}
			}
			JOINT lCollar
			{
				OFFSET 3.470700 6.669187 -0.816635 
				CHANNELS 3 Yrotation Zrotation Xrotation
				JOINT lShldr
				{
					OFFSET 3.198488 0.000000 0.000000 
					CHANNELS 3 Zrotation Yrotation Xrotation
					JOINT lForeArm
					{
						OFFSET 10.139888 0.000000 0.000000 
						CHANNELS 3 Yrotation Zrotation Xrotation
						JOINT lHand
						{
							OFFSET 8.370511 0.000000 0.000000 
							CHANNELS 3 Zrotation Yrotation Xrotation
							End Site
							{
								OFFSET 4.083176 0.000000 0.000000 
							}
						}
					}
				}
			}
			JOINT rCollar
			{
				OFFSET -3.470700 6.669187 -0.816635 
				CHANNELS 3 Yrotation Zrotation Xrotation
				JOINT rShldr
				{
					OFFSET -3.198488 0.000000 0.000000 
					CHANNELS 3 Zrotation Yrotation Xrotation
					JOINT rForeArm
					{
						OFFSET -10.139888 0.000000 0.000000 
						CHANNELS 3 Yrotation Zrotation Xrotation
						JOINT rHand
						{
							OFFSET -8.370511 0.000000 0.000000 
							CHANNELS 3 Zrotation Yrotation Xrotation
							End Site
							{
								OFFSET -4.083176 0.000000 0.000000 
							}
						}
					}
				}
			}
		}
	}
	JOINT lThigh
	{
		OFFSET 5.308129 -1.633274 1.361059 
		CHANNELS 3 Xrotation Zrotation Yrotation
		JOINT lShin
		{
			OFFSET -2.041588 -20.007561 0.000000 
			CHANNELS 3 Xrotation Zrotation Yrotation
			JOINT lFoot
			{
				OFFSET 0.000000 -19.190928 -1.224953 
				CHANNELS 3 Xrotation Yrotation Zrotation
				End Site
				{
					OFFSET 0.000000 -2.449906 4.627600 
				}
			}
		}
	}
	JOINT rThigh
	{
		OFFSET -5.308129 -1.633274 1.361059 
		CHANNELS 3 Xrotation Zrotation Yrotation
		JOINT rShin
		{
			OFFSET 2.041588 -20.007561 0.000000 
			CHANNELS 3 Xrotation Zrotation Yrotation
			JOINT rFoot
			{
				OFFSET 0.000000 -19.190928 -1.224953 
				CHANNELS 3 Xrotation Yrotation Zrotation
				End Site
				{
					OFFSET 0.000000 -2.449906 4.627600 
				}
			}
		}
	}
}
MOTION
Frames: 13
Frame Time: 0.033333
-8.122628 43.057846 -1.879212 -9.414063 -18.330078 154.560547 21.324947 -11.668645 -8.829652 -13.535157 5.488282 9.599608 35.015995 11.492234 0.679095 -38.134769 -15.898437 2.119140 2.000000 -2.000000 0.000000 -43.623047 -13.769532 28.161739 -90.790955 24.252666 45.671646 9.700053 -28.636120 -10.369514 -2.000000 2.000000 0.000000 16.542969 -29.189451 98.598755 -40.095398 -3.028736 -90.117874 2.660932 7.564395 -41.124115 -13.990060 6.450872 18.519171 49.382843 -0.736301 -2.311575 -24.055109 -5.054095 -13.691923 -53.181709 -34.031620 -7.914211 54.689678 -9.772248 1.889338 21.370014 -15.062526 35.249680 
-8.000935 42.985603 -1.701839 -9.443359 -17.900389 151.279297 21.324947 -11.668645 -8.829652 -12.509766 6.005860 9.883835 29.700937 13.658540 0.889864 -37.333988 -17.001951 0.761717 2.000000 -2.000000 0.000000 -52.880859 -17.890627 30.836842 -86.763603 30.432192 36.335739 13.914167 -26.129274 -11.656857 -2.000000 2.000000 0.000000 17.041018 -31.171877 98.246902 -35.758930 -5.005165 -89.854111 2.333997 9.645637 -40.809834 -14.225897 7.418941 18.810448 50.436218 -0.238464 -2.241435 -24.300117 -1.985866 -14.914818 -54.598804 -31.122574 -6.599092 54.916565 -9.569205 1.909925 20.741716 -14.515235 34.172436 
-7.624907 43.490696 -1.670963 -9.697266 -17.402344 146.259766 21.324947 -11.668645 -8.829652 -12.089844 7.226563 10.224609 26.251808 15.001151 1.010756 -37.714844 -16.464842 1.022622 2.000000 -2.000000 0.000000 -58.242191 -16.533201 31.259768 -85.891418 34.573093 34.273899 19.164694 -25.579033 -13.551148 -2.000000 2.000000 0.000000 16.054688 -31.250000 97.587891 -33.191235 -10.202003 -81.312477 4.318797 14.178068 -38.627590 -11.129774 9.389160 19.743221 47.088470 -2.393504 -2.594894 -22.889339 0.853725 -15.619640 -54.681007 -28.560335 -5.602926 53.169373 -5.712295 2.660155 20.977669 -13.488405 32.544895 
-7.120636 44.241089 -1.792483 -11.376952 -18.867188 140.699966 21.324947 -11.668645 -8.829652 -14.960938 8.544923 9.990234 25.085688 15.584100 1.072983 -35.673832 -16.191408 0.244140 2.000000 -2.000000 0.000000 -60.849609 -11.923828 29.275324 -85.316490 36.106155 33.416866 19.968445 -26.120977 -14.257760 -2.000000 2.000000 0.000000 14.375001 -30.166016 97.221657 -30.211149 -17.133322 -73.568207 5.336996 12.580269 -39.077000 -8.952296 10.178225 20.190212 41.910156 -4.520668 -2.818449 -19.158552 4.211085 -18.598534 -56.166019 -27.037792 -4.914130 50.176422 0.009927 3.599370 21.383305 -12.635098 29.581009 
-6.076125 45.558594 -2.122384 -5.126953 -15.419922 131.257172 21.324947 -11.668645 -8.829652 -8.564453 8.056641 10.987697 26.636354 13.610292 0.897154 -36.103519 -12.939453 2.646484 2.000000 -2.000000 0.000000 -54.208984 -4.414062 22.988279 -84.721802 37.174480 31.868624 16.299179 -25.538898 -13.171786 -2.000000 2.000000 0.000000 14.013673 -24.531252 96.060402 -28.268560 -21.357523 -66.729782 6.205087 12.437616 -39.181534 4.127957 9.703264 20.505423 35.603672 -6.702776 -2.941096 -10.190254 3.934322 -31.070169 -47.628845 -25.004942 -4.714981 46.578308 4.384489 4.184893 23.076107 -9.534300 29.363541 
-5.166200 46.358624 -2.273690 -4.921875 -18.944283 125.427940 21.324947 -11.668645 -8.829652 -13.632813 7.216797 9.941408 29.902452 12.328329 0.785757 -37.060547 -12.373046 3.310546 2.000000 -2.000000 0.000000 -55.292969 0.732422 20.107460 -81.470924 36.732498 27.837898 15.422442 -26.372345 -13.063691 -2.000000 2.000000 0.000000 14.853515 -21.386719 96.523438 -26.378080 -24.834265 -62.941845 5.247758 11.028067 -40.636402 2.557773 9.784624 20.540728 37.201767 -6.800482 -3.092680 0.074752 -1.124924 -33.801285 -50.416546 -25.476721 -4.718842 45.975391 9.052753 5.221694 24.619699 -8.464005 31.102606 
-3.977493 47.173130 -2.172763 -2.851562 -20.595703 117.574684 21.324947 -11.668645 -8.829652 -16.425781 6.435547 9.277345 33.906208 8.744347 0.474608 -37.646484 -8.623046 5.223145 2.000000 -2.000000 0.000000 -51.181641 4.228516 14.209705 -78.867531 35.496513 22.166681 16.714424 -26.802195 -13.458525 -2.000000 2.000000 0.000000 16.494139 -16.962889 98.603516 -26.655199 -29.594082 -59.512741 7.317108 10.866348 -40.396690 2.312155 12.711588 21.690853 41.420326 -8.177949 -3.643913 10.888103 -11.438279 -26.493500 -50.702068 -23.036783 -3.822815 46.122021 12.207041 5.944827 25.130789 -12.887363 35.819695 
-2.568929 47.640018 -2.294611 1.386719 -18.886719 111.832779 21.324947 -11.668645 -8.829652 -15.878905 4.824219 9.043791 37.905930 6.440696 0.266532 -38.574223 -6.298828 5.839844 2.000000 -2.000000 0.000000 -47.851563 6.787109 10.937499 -77.057961 34.937160 15.296919 16.772587 -27.709627 -13.362120 -2.000000 2.000000 0.000000 18.583984 -12.978517 99.958748 -25.466103 -29.884005 -56.162258 7.813388 10.158896 -40.846493 4.900759 13.708848 22.147554 44.851284 -5.025342 -3.081813 25.466558 -20.870562 -27.844879 -45.786827 -23.444830 -4.267283 47.514545 14.383573 6.561162 23.801588 -20.995033 34.306908 
-1.270831 47.513443 -2.341299 4.238281 -17.011721 106.051826 21.324947 -11.668645 -8.829652 -15.800782 4.638672 9.023438 40.660839 3.171040 0.003887 -38.789063 -4.228462 6.445233 2.000000 -2.000000 0.000000 -45.126953 11.328125 8.818360 -77.313797 36.190277 8.827600 16.936283 -28.840040 -13.207283 -2.000000 2.000000 0.000000 20.898439 -7.929688 102.117798 -25.485373 -27.324129 -54.781464 6.387619 10.512388 -41.633350 6.042971 15.232992 22.804958 50.905582 -0.368889 -2.284447 30.553602 -21.772293 -19.982273 -42.785564 -22.573776 -4.144933 50.669476 14.920869 7.010326 21.482893 -28.570988 32.513912 
-0.109142 46.858509 -2.422202 6.093750 -15.537109 101.218086 21.324947 -11.668645 -8.829652 -16.035156 5.068359 9.062367 41.767384 0.404400 -0.199459 -38.154297 -3.193359 7.382813 2.000000 -2.000000 0.000000 -50.634766 15.800780 7.717504 -80.112282 40.206417 6.484797 19.909964 -29.951059 -14.233274 -2.000000 2.000000 0.000000 22.871094 -3.896484 103.378906 -24.978960 -24.489389 -54.267467 3.360460 10.178779 -43.287766 5.075699 16.189344 23.232899 58.419586 6.718743 -0.990900 27.729223 -17.232101 -12.959888 -41.111004 -22.098301 -4.070946 54.321556 16.034262 7.611183 13.357384 -25.525673 26.533752 
0.943915 45.909073 -2.362081 6.503906 -14.462890 96.257332 21.324947 -11.668645 -8.829652 -16.474609 6.474609 9.278445 41.792797 -1.874528 -0.378179 -36.914066 -1.992188 9.062500 2.000000 -2.000000 0.000000 -57.460941 20.166018 6.113282 -82.956703 43.733284 3.636016 21.834070 -31.456795 -14.753004 -2.000000 2.000000 0.000000 25.634764 0.205078 104.746094 -24.969477 -20.608088 -54.534019 0.160169 11.623146 -44.454887 2.879682 17.889351 23.969261 65.527298 14.899395 0.560549 26.910366 -13.875668 -4.246243 -41.609268 -19.842897 -3.274901 57.878864 16.796444 8.153883 7.402462 -25.270365 22.334806 
1.895048 45.074978 -2.474196 7.187500 -11.484376 91.951180 21.324947 -11.668645 -8.829652 -14.257813 7.568360 9.903631 41.571541 -2.950928 -0.442128 -37.031250 -1.494141 9.306643 2.000000 -2.000000 0.000000 -64.960938 23.613281 5.732422 -84.376770 45.687519 -1.752508 23.998800 -32.651009 -14.771074 -2.000000 2.000000 0.000000 28.876951 4.580078 105.800781 -23.495396 -15.171339 -59.314919 -0.787108 11.545624 -45.097454 2.028646 18.071745 24.018520 70.820992 22.458794 2.156258 30.156481 -7.903820 -0.010979 -39.548141 -18.123726 -2.803063 61.278263 15.401332 8.124671 1.951526 -20.534142 20.168955 
2.655723 44.259411 -2.352171 5.527344 -10.859375 87.830193 21.324947 -11.668645 -8.829652 -14.228516 10.458986 10.538882 41.100510 -3.252278 -0.475562 -37.324223 -1.660156 9.257813 2.000000 -2.000000 0.000000 -71.503906 26.513672 5.102018 -81.848503 46.439453 -0.988009 25.982574 -32.213909 -15.004385 -2.000000 2.000000 0.000000 34.287113 8.564453 106.319809 -22.293268 -10.520803 -60.774750 -4.104047 14.968255 -45.600822 -2.219827 20.704475 25.059795 75.368210 29.135736 3.682466 26.850422 -5.436918 1.368058 -38.742760 -13.640072 -1.383708 62.097424 15.116909 8.128147 -4.187654 -19.471714 16.998726 
